<?xml version="1.0" ?><svg height="1024" preserveAspectRatio="xMidYMid meet" width="1024" xmlns="http://www.w3.org/2000/svg"><g><title/><rect fill="none" height="1026" id="canvas_background" width="1026" x="-1" y="-1"/></g><g><title/><g fill="#000000" id="svg_1" transform="translate(0,1024) scale(0.10000000149011612,-0.10000000149011612) "><path d="m4820,9439c-1036,-77 -1981,-503 -2723,-1228c-976,-952 -1444,-2300 -1271,-3654c216,-1693 1410,-3103 3050,-3602c1268,-386 2679,-157 3754,608c1321,941 2008,2502 1804,4100c-216,1693 -1410,3103 -3050,3602c-488,149 -1057,212 -1564,174zm2310,-1977c306,-95 531,-344 579,-642c7,-39 11,-257 11,-542l0,-478l-659,0l-659,0l-77,95c-365,450 -900,639 -1510,535c-293,-50 -544,-179 -751,-385c-55,-55 -124,-133 -153,-172l-54,-73l-659,0l-659,0l3,523l3,522l28,80c77,227 256,420 470,507c145,59 54,57 2117,55l1895,-2l75,-23zm-1808,-1616c351,-69 654,-352 742,-691c109,-425 -62,-844 -445,-1088c-222,-141 -535,-176 -796,-87c-305,104 -548,367 -635,689c-31,112 -31,342 0,464c88,353 385,639 742,712c88,18 301,18 392,1zm-1739,-718c-4,-40 -8,-156 -7,-258c1,-271 38,-432 154,-665c186,-375 554,-687 948,-804c166,-49 298,-64 507,-58c197,6 270,18 435,73c210,70 399,187 578,359c256,245 410,522 469,845c23,125 23,415 1,513l-16,67l534,0l534,0l0,-1079c0,-1181 1,-1155 -59,-1306c-99,-246 -342,-449 -596,-497c-104,-19 -3792,-19 -3880,0c-163,37 -300,117 -422,246c-84,89 -131,160 -170,256c-53,133 -53,125 -53,1296l0,1084l526,0l525,0l-8,-72z" fill="#517fa4" id="svg_2"/><path d="m6643,7044c-58,-29 -63,-53 -63,-334c0,-277 2,-288 63,-334l34,-26l262,0c288,0 307,3 336,60c23,44 22,537 -1,585c-28,61 -51,65 -341,65c-214,0 -263,-3 -290,-16z" fill="#517fa4" id="svg_3"/></g></g></svg>